<svg width="512" height="512" viewBox="0 0 680 680" xmlns="http://www.w3.org/2000/svg">
  <path d="M340,40 L580,150 L580,370 Q580,540 340,630 Q100,540 100,370 L100,150 Z" fill="#085041"/>
  <path d="M340,40 L580,150 L580,370 Q580,540 340,630 Q100,540 100,370 L100,150 Z" fill="none" stroke="#1D9E75" stroke-width="3"/>
  <path d="M340,70 L552,168 L552,368 Q552,510 340,596 Q128,510 128,368 L128,168 Z" fill="none" stroke="#1D9E75" stroke-width="1" opacity="0.5"/>
  <polygon points="340,175 170,440 270,440" fill="#1D9E75"/>
  <polygon points="340,175 210,440 270,440" fill="#0A5C45"/>
  <polygon points="340,175 510,440 410,440" fill="#0F6E56"/>
  <polygon points="340,175 460,440 510,440" fill="#1D9E75" opacity="0.5"/>
  <path d="M263,440 Q340,360 417,440" fill="#053D32"/>
  <rect x="160" y="440" width="360" height="10" rx="5" fill="#0A5C45"/>
  <line x1="340" y1="158" x2="340" y2="180" stroke="#ffffff" stroke-width="4" stroke-linecap="round" opacity="0.9"/>
  <circle cx="340" cy="152" r="9" fill="#ffffff" opacity="0.9"/>
  <line x1="340" y1="158" x2="175" y2="438" stroke="#ffffff" stroke-width="1.5" stroke-dasharray="5 4" opacity="0.3"/>
  <line x1="340" y1="158" x2="505" y2="438" stroke="#ffffff" stroke-width="1.5" stroke-dasharray="5 4" opacity="0.3"/>
  <line x1="178" y1="436" x2="162" y2="465" stroke="#ffffff" stroke-width="2.5" stroke-linecap="round" opacity="0.6"/>
  <line x1="502" y1="436" x2="518" y2="465" stroke="#ffffff" stroke-width="2.5" stroke-linecap="round" opacity="0.6"/>
  <circle cx="200" cy="200" r="4" fill="#ffffff" opacity="0.5"/>
  <circle cx="480" cy="185" r="5" fill="#ffffff" opacity="0.4"/>
  <circle cx="520" cy="260" r="3" fill="#ffffff" opacity="0.3"/>
  <circle cx="175" cy="290" r="3" fill="#ffffff" opacity="0.35"/>
  <circle cx="440" cy="215" r="2.5" fill="#ffffff" opacity="0.4"/>
  <circle cx="470" cy="225" r="28" fill="#1D9E75"/>
  <circle cx="482" cy="215" r="22" fill="#085041"/>
</svg>
